<?xml version="1.0" encoding="UTF-8" standalone="no"?>
<svg
   xmlns:dc="http://purl.org/dc/elements/1.1/"
   xmlns:cc="http://creativecommons.org/ns#"
   xmlns:rdf="http://www.w3.org/1999/02/22-rdf-syntax-ns#"
   xmlns:svg="http://www.w3.org/2000/svg"
   xmlns="http://www.w3.org/2000/svg"
   id="svg8"
   version="1.1"
   viewBox="0 0 8.4666665 8.4666669"
   height="32"
   width="32">
  <defs
     id="defs2" />
  <metadata
     id="metadata5">
    <rdf:RDF>
      <cc:Work
         rdf:about="">
        <dc:format>image/svg+xml</dc:format>
        <dc:type
           rdf:resource="http://purl.org/dc/dcmitype/StillImage" />
        <dc:title></dc:title>
      </cc:Work>
    </rdf:RDF>
  </metadata>
  <g
     transform="translate(0,-288.53332)"
     id="layer1">
    <path
       id="path817"
       d="M 4.2324219,288.5332 C 1.898942,288.5332 1.0910196e-6,290.4341 0,292.76758 1.0910197e-6,295.10106 1.898942,297 4.2324219,297 c 2.3334799,0 4.2343739,-1.89894 4.234375,-4.23242 -1.1e-6,-2.33348 -1.9008951,-4.23438 -4.234375,-4.23438 z m 0,0.76758 c 1.9189479,0 3.466796,1.54785 3.4667969,3.4668 -9e-7,1.91895 -1.547849,3.46484 -3.4667969,3.46484 -1.9189479,0 -3.46484288,-1.54589 -3.46484378,-3.46484 9e-7,-1.91895 1.54589588,-3.4668 3.46484378,-3.4668 z"
       style="color:#000000;font-style:normal;font-variant:normal;font-weight:normal;font-stretch:normal;font-size:medium;line-height:normal;font-family:sans-serif;font-variant-ligatures:normal;font-variant-position:normal;font-variant-caps:normal;font-variant-numeric:normal;font-variant-alternates:normal;font-feature-settings:normal;text-indent:0;text-align:start;text-decoration:none;text-decoration-line:none;text-decoration-style:solid;text-decoration-color:#000000;letter-spacing:normal;word-spacing:normal;text-transform:none;writing-mode:lr-tb;direction:ltr;text-orientation:mixed;dominant-baseline:auto;baseline-shift:baseline;text-anchor:start;white-space:normal;shape-padding:0;clip-rule:nonzero;display:inline;overflow:visible;visibility:visible;opacity:0.98000004;isolation:auto;mix-blend-mode:normal;color-interpolation:sRGB;color-interpolation-filters:linearRGB;solid-color:#000000;solid-opacity:1;vector-effect:none;fill:#1c75ff;fill-opacity:1;fill-rule:nonzero;stroke:none;stroke-width:0.76702708;stroke-linecap:round;stroke-linejoin:round;stroke-miterlimit:4;stroke-dasharray:none;stroke-dashoffset:0;stroke-opacity:1;color-rendering:auto;image-rendering:auto;shape-rendering:auto;text-rendering:auto;enable-background:accumulate" />
    <g
       id="text840"
       style="font-style:normal;font-weight:normal;font-size:6.17272139px;line-height:125%;font-family:sans-serif;letter-spacing:0px;word-spacing:0px;fill:#1c75ff;fill-opacity:1;stroke:#1c75ff;stroke-width:0.49381775px;stroke-linecap:butt;stroke-linejoin:miter;stroke-opacity:1"
       aria-label="i">
      <path
         id="path842"
         style="font-style:italic;font-variant:normal;font-weight:normal;font-stretch:normal;font-size:6.17272234px;font-family:serif;-inkscape-font-specification:'serif, Italic';font-variant-ligatures:normal;font-variant-caps:normal;font-variant-numeric:normal;font-feature-settings:normal;text-align:start;writing-mode:lr-tb;text-anchor:start;fill:#1c75ff;fill-opacity:1;stroke:#1c75ff;stroke-width:0.49381775px;stroke-opacity:1"
         d="m 4.2167562,290.83918 q 0.027126,-0.13864 0.1476872,-0.24112 0.120561,-0.10248 0.2622202,-0.10248 0.1386451,0 0.2200238,0.10248 0.063294,0.0784 0.063294,0.17481 0,0.0332 -0.00904,0.0663 -0.027126,0.14166 -0.1476872,0.24113 -0.117547,0.0995 -0.2592061,0.0995 -0.1416592,0 -0.2230378,-0.0995 -0.060281,-0.0754 -0.060281,-0.1718 0,-0.0332 0.00603,-0.0693 z m -0.04521,3.87905 h 0.5244402 l -0.060281,0.31949 H 3.5566848 l 0.5575946,-2.88141 H 3.5838111 l 0.063295,-0.3225 h 1.0850488 z" />
    </g>
  </g>
</svg>
