<?xml version="1.0" encoding="UTF-8" standalone="no"?>
<!-- Created with Inkscape (http://www.inkscape.org/) -->

<svg
   xmlns:dc="http://purl.org/dc/elements/1.1/"
   xmlns:cc="http://creativecommons.org/ns#"
   xmlns:rdf="http://www.w3.org/1999/02/22-rdf-syntax-ns#"
   xmlns:svg="http://www.w3.org/2000/svg"
   xmlns="http://www.w3.org/2000/svg"
   xmlns:sodipodi="http://sodipodi.sourceforge.net/DTD/sodipodi-0.dtd"
   xmlns:inkscape="http://www.inkscape.org/namespaces/inkscape"
   width="32"
   height="32"
   viewBox="0 0 8.4666665 8.4666669"
   version="1.1"
   id="svg8"
   inkscape:version="0.92.3 (2405546, 2018-03-11)"
   sodipodi:docname="Icon-Info.svg">
  <defs
     id="defs2" />
  <sodipodi:namedview
     id="base"
     pagecolor="#ffffff"
     bordercolor="#666666"
     borderopacity="1.0"
     inkscape:pageopacity="0.0"
     inkscape:pageshadow="2"
     inkscape:zoom="5.6568542"
     inkscape:cx="49.622164"
     inkscape:cy="2.6348041"
     inkscape:document-units="mm"
     inkscape:current-layer="layer1"
     showgrid="false"
     units="px"
     inkscape:window-width="1920"
     inkscape:window-height="1031"
     inkscape:window-x="1920"
     inkscape:window-y="0"
     inkscape:window-maximized="1" />
  <metadata
     id="metadata5">
    <rdf:RDF>
      <cc:Work
         rdf:about="">
        <dc:format>image/svg+xml</dc:format>
        <dc:type
           rdf:resource="http://purl.org/dc/dcmitype/StillImage" />
        <dc:title></dc:title>
      </cc:Work>
    </rdf:RDF>
  </metadata>
  <g
     inkscape:label="Ebene 1"
     inkscape:groupmode="layer"
     id="layer1"
     transform="translate(0,-288.53332)">
    <path
       style="opacity:0.98000004;fill:#fefefe;fill-opacity:1;stroke:#1c75ff;stroke-width:0.76702708;stroke-linecap:round;stroke-linejoin:round;stroke-miterlimit:4;stroke-dasharray:none;stroke-dashoffset:0;stroke-opacity:1"
       d="m 8.0831852,292.76666 a 3.8498521,3.8498518 0 0 1 -3.8498521,3.84985 3.8498521,3.8498518 0 0 1 -3.84985207,-3.84985 3.8498521,3.8498518 0 0 1 3.84985207,-3.84985 3.8498521,3.8498518 0 0 1 3.8498521,3.84985 z"
       id="path817" />
    <g
       aria-label="i"
       style="font-style:normal;font-weight:normal;font-size:6.17272139px;line-height:125%;font-family:sans-serif;letter-spacing:0px;word-spacing:0px;fill:#1c75ff;fill-opacity:1;stroke:#1c75ff;stroke-width:0.49381775px;stroke-linecap:butt;stroke-linejoin:miter;stroke-opacity:1"
       id="text840">
      <path
         d="m 4.2167562,290.83918 q 0.027126,-0.13864 0.1476872,-0.24112 0.120561,-0.10248 0.2622202,-0.10248 0.1386451,0 0.2200238,0.10248 0.063294,0.0784 0.063294,0.17481 0,0.0332 -0.00904,0.0663 -0.027126,0.14166 -0.1476872,0.24113 -0.117547,0.0995 -0.2592061,0.0995 -0.1416592,0 -0.2230378,-0.0995 -0.060281,-0.0754 -0.060281,-0.1718 0,-0.0332 0.00603,-0.0693 z m -0.04521,3.87905 h 0.5244402 l -0.060281,0.31949 H 3.5566848 l 0.5575946,-2.88141 H 3.5838111 l 0.063295,-0.3225 h 1.0850488 z"
         style="font-style:italic;font-variant:normal;font-weight:normal;font-stretch:normal;font-size:6.17272234px;font-family:serif;-inkscape-font-specification:'serif, Italic';font-variant-ligatures:normal;font-variant-caps:normal;font-variant-numeric:normal;font-feature-settings:normal;text-align:start;writing-mode:lr-tb;text-anchor:start;fill:#1c75ff;fill-opacity:1;stroke:#1c75ff;stroke-width:0.49381775px;stroke-opacity:1"
         id="path842" />
    </g>
  </g>
</svg>
